<?xml version="1.0" standalone="no"?>
<!DOCTYPE svg PUBLIC "-//W3C//DTD SVG 20010904//EN"
 "http://www.w3.org/TR/2001/REC-SVG-20010904/DTD/svg10.dtd">
<svg version="1.0" xmlns="http://www.w3.org/2000/svg"
 width="300.000000pt" height="197.000000pt" viewBox="0 0 300.000000 197.000000"
 preserveAspectRatio="xMidYMid meet">
<metadata>
Created by potrace 1.10, written by Peter Selinger 2001-2011
</metadata>
<g transform="translate(0.000000,197.000000) scale(0.100000,-0.100000)"
fill="#000000" stroke="none">
<path d="M1063 1569 c-50 -4 -126 -17 -170 -28 -95 -24 -345 -105 -370 -120
-27 -15 -2 -13 48 4 24 9 52 14 61 11 10 -2 56 6 103 19 47 13 85 21 85 18 0
-3 6 -1 13 5 18 15 215 42 357 49 386 17 886 -156 1079 -375 109 -123 144
-251 100 -367 -28 -75 -131 -182 -234 -243 -312 -184 -898 -254 -1225 -145
-203 68 -317 159 -388 309 -37 80 -38 209 -3 297 60 152 228 303 421 380 133
53 320 75 385 45 30 -13 39 -7 31 20 -25 79 -315 49 -516 -53 -94 -47 -165
-101 -237 -179 -132 -144 -179 -294 -137 -437 64 -214 212 -351 469 -432 128
-40 227 -50 429 -44 521 16 930 192 1030 442 30 75 33 134 11 220 -50 189
-211 345 -480 463 -280 122 -560 168 -862 141z m152 -99 c-3 -5 -14 -10 -23
-10 -15 0 -15 2 -2 10 20 13 33 13 25 0z m-118 -16 c-3 -3 -12 -4 -19 -1 -8 3
-5 6 6 6 11 1 17 -2 13 -5z m-337 -138 c0 -3 -4 -8 -10 -11 -5 -3 -10 -1 -10
4 0 6 5 11 10 11 6 0 10 -2 10 -4z"/>
</g>
</svg>
